<svg width="329" height="122" viewBox="0 0 329 122" fill="none" xmlns="http://www.w3.org/2000/svg">
<path d="M94.9058 10.3982C96.0843 11.2301 97.2627 12.0619 98.3719 12.8938L88.7361 26.2036C87.627 25.3025 86.4485 24.4706 85.27 23.708L94.9058 10.3982Z" fill="#5454E9"/>
<path d="M94.9058 10.3982C96.0843 11.2301 97.2627 12.0619 98.3719 12.8938L88.7361 26.2036C87.627 25.3025 86.4485 24.4706 85.27 23.708L94.9058 10.3982Z" fill="#5454E9"/>
<path d="M37.0239 4.92034L42.1538 20.5871C45.4119 19.062 48.8087 17.9529 52.4134 17.2597L47.2836 1.59288C43.7482 2.42475 40.2821 3.5339 37.0239 4.92034Z" fill="#5454E9"/>
<path d="M37.0239 4.92034L42.1538 20.5871C45.4119 19.062 48.8087 17.9529 52.4134 17.2597L47.2836 1.59288C43.7482 2.42475 40.2821 3.5339 37.0239 4.92034Z" fill="#5454E9"/>
<path d="M72.7842 18.0231C74.032 18.3697 75.2798 18.7856 76.4583 19.2015L81.5188 3.60407C80.3403 3.18814 79.0925 2.77221 77.8447 2.4256L72.7842 18.0231Z" fill="#5454E9"/>
<path d="M72.7842 18.0231C74.032 18.3697 75.2798 18.7856 76.4583 19.2015L81.5188 3.60407C80.3403 3.18814 79.0925 2.77221 77.8447 2.4256L72.7842 18.0231Z" fill="#5454E9"/>
<path d="M22.2498 38.8939C23.8442 36.0517 25.7852 33.4175 28.0035 30.9912L14.6937 21.2861C12.5447 23.7817 10.673 26.4159 8.93994 29.1888L22.2498 38.8939Z" fill="#5454E9"/>
<path d="M22.2498 38.8939C23.8442 36.0517 25.7852 33.4175 28.0035 30.9912L14.6937 21.2861C12.5447 23.7817 10.673 26.4159 8.93994 29.1888L22.2498 38.8939Z" fill="#5454E9"/>
<path d="M30.7803 28.2193C33.2759 25.9316 36.1181 23.852 39.0989 22.1882L29.3938 8.8784C26.4823 10.6808 23.6401 12.6911 21.0752 14.9094L30.7803 28.2193Z" fill="#5454E9"/>
<path d="M30.7803 28.2193C33.2759 25.9316 36.1181 23.852 39.0989 22.1882L29.3938 8.8784C26.4823 10.6808 23.6401 12.6911 21.0752 14.9094L30.7803 28.2193Z" fill="#5454E9"/>
<path d="M117.98 39.7231L102.383 44.7836C103.007 46.3087 103.492 47.9031 103.908 49.5669L119.505 44.5064C119.02 42.9119 118.535 41.3175 117.98 39.7231Z" fill="#5454E9"/>
<path d="M117.98 39.7231L102.383 44.7836C103.007 46.3087 103.492 47.9031 103.908 49.5669L119.505 44.5064C119.02 42.9119 118.535 41.3175 117.98 39.7231Z" fill="#5454E9"/>
<path d="M16.36 60.9367C16.36 59.4809 16.4293 57.9558 16.568 56.5001H0.138645C5.26819e-07 57.9558 0 59.4116 0 60.9367C0 62.4618 5.26819e-07 63.9175 0.138645 65.3733H16.568C16.4293 63.9175 16.36 62.4618 16.36 60.9367Z" fill="#5454E9"/>
<path d="M16.36 60.9367C16.36 59.4809 16.4293 57.9558 16.568 56.5001H0.138645C5.26819e-07 57.9558 0 59.4116 0 60.9367C0 62.4618 5.26819e-07 63.9175 0.138645 65.3733H16.568C16.4293 63.9175 16.36 62.4618 16.36 60.9367Z" fill="#5454E9"/>
<path d="M105.443 60.9324C105.443 61.8336 105.443 62.8041 105.374 63.7052H121.803C121.803 62.8041 121.803 61.8336 121.803 60.9324C121.803 60.0312 121.803 59.0607 121.803 58.1595H105.374C105.374 59.0607 105.443 60.0312 105.443 60.9324Z" fill="#5454E9"/>
<path d="M105.443 60.9324C105.443 61.8336 105.443 62.8041 105.374 63.7052H121.803C121.803 62.8041 121.803 61.8336 121.803 60.9324C121.803 60.0312 121.803 59.0607 121.803 58.1595H105.374C105.374 59.0607 105.443 60.0312 105.443 60.9324Z" fill="#5454E9"/>
<path d="M17.3318 51.6482C17.9557 48.598 18.9262 45.6172 20.174 42.8443L4.50724 37.7838C3.32877 40.626 2.35826 43.5375 1.66504 46.5877L17.3318 51.6482Z" fill="#5454E9"/>
<path d="M17.3318 51.6482C17.9557 48.598 18.9262 45.6172 20.174 42.8443L4.50724 37.7838C3.32877 40.626 2.35826 43.5375 1.66504 46.5877L17.3318 51.6482Z" fill="#5454E9"/>
<path d="M95.4644 32.9288C96.4349 34.1766 97.4054 35.4244 98.2372 36.8108L111.547 27.1751C110.646 25.858 109.745 24.5408 108.774 23.293L95.4644 32.9288Z" fill="#5454E9"/>
<path d="M95.4644 32.9288C96.4349 34.1766 97.4054 35.4244 98.2372 36.8108L111.547 27.1751C110.646 25.858 109.745 24.5408 108.774 23.293L95.4644 32.9288Z" fill="#5454E9"/>
<path d="M55.1738 0.277289V16.7759C55.9364 16.7066 58.2933 16.4293 60.8582 16.4293C63.4232 16.4293 65.7801 16.7066 66.5426 16.7759V0.277289C65.6415 0.207967 63.2845 0 60.8582 0C58.432 0 56.075 0.207967 55.1738 0.277289Z" fill="#5454E9"/>
<path d="M55.1738 0.277289V16.7759C55.9364 16.7066 58.2933 16.4293 60.8582 16.4293C63.4232 16.4293 65.7801 16.7066 66.5426 16.7759V0.277289C65.6415 0.207967 63.2845 0 60.8582 0C58.432 0 56.075 0.207967 55.1738 0.277289Z" fill="#5454E9"/>
<path d="M89.9145 94.6294C88.2508 96.0158 86.5177 97.3329 84.7153 98.5114L94.4204 111.821C96.2228 110.643 97.9558 109.326 99.6196 107.939L89.9145 94.6294Z" fill="#5454E9"/>
<path d="M89.9145 94.6294C88.2508 96.0158 86.5177 97.3329 84.7153 98.5114L94.4204 111.821C96.2228 110.643 97.9558 109.326 99.6196 107.939L89.9145 94.6294Z" fill="#5454E9"/>
<path d="M20.0432 78.6098C18.9341 76.0449 18.1022 73.4107 17.4783 70.6378L1.81152 75.6983C2.50474 78.4019 3.33661 81.1054 4.37644 83.6704L20.0432 78.6098Z" fill="#5454E9"/>
<path d="M20.0432 78.6098C18.9341 76.0449 18.1022 73.4107 17.4783 70.6378L1.81152 75.6983C2.50474 78.4019 3.33661 81.1054 4.37644 83.6704L20.0432 78.6098Z" fill="#5454E9"/>
<path d="M77.7082 102.186C75.6979 103.017 73.6876 103.641 71.5386 104.196L76.5991 119.863C78.6787 119.308 80.7584 118.615 82.7688 117.852L77.7082 102.186Z" fill="#5454E9"/>
<path d="M77.7082 102.186C75.6979 103.017 73.6876 103.641 71.5386 104.196L76.5991 119.863C78.6787 119.308 80.7584 118.615 82.7688 117.852L77.7082 102.186Z" fill="#5454E9"/>
<path d="M104.052 71.887C103.567 73.7587 102.943 75.6304 102.25 77.4328L117.917 82.4933C118.61 80.6909 119.234 78.8192 119.719 76.9475L104.122 71.887H104.052Z" fill="#5454E9"/>
<path d="M104.052 71.887C103.567 73.7587 102.943 75.6304 102.25 77.4328L117.917 82.4933C118.61 80.6909 119.234 78.8192 119.719 76.9475L104.122 71.887H104.052Z" fill="#5454E9"/>
<path d="M98.6502 84.5051C97.541 86.2382 96.3625 87.9019 95.0454 89.4963L108.355 99.1321C109.672 97.5377 110.851 95.8739 111.96 94.1409L98.6502 84.5051Z" fill="#5454E9"/>
<path d="M98.6502 84.5051C97.541 86.2382 96.3625 87.9019 95.0454 89.4963L108.355 99.1321C109.672 97.5377 110.851 95.8739 111.96 94.1409L98.6502 84.5051Z" fill="#5454E9"/>
<path d="M28.2038 112.376L37.8396 99.066C35.6906 97.7489 33.611 96.2931 31.7393 94.6294L22.0342 107.939C23.9752 109.534 25.9855 111.059 28.1345 112.376H28.2038Z" fill="#5454E9"/>
<path d="M28.2038 112.376L37.8396 99.066C35.6906 97.7489 33.611 96.2931 31.7393 94.6294L22.0342 107.939C23.9752 109.534 25.9855 111.059 28.1345 112.376H28.2038Z" fill="#5454E9"/>
<path d="M27.3777 90.1855C25.6447 88.1752 24.0503 86.0262 22.6638 83.7386L9.354 93.4437C10.7404 95.662 12.3349 97.811 13.9986 99.8906L27.3084 90.1855H27.3777Z" fill="#5454E9"/>
<path d="M27.3777 90.1855C25.6447 88.1752 24.0503 86.0262 22.6638 83.7386L9.354 93.4437C10.7404 95.662 12.3349 97.811 13.9986 99.8906L27.3084 90.1855H27.3777Z" fill="#5454E9"/>
<path d="M50.606 104.26C48.2491 103.705 45.9614 102.942 43.7431 102.041L38.6826 117.708C40.9009 118.609 43.1886 119.302 45.4762 119.926L50.5367 104.26H50.606Z" fill="#5454E9"/>
<path d="M50.606 104.26C48.2491 103.705 45.9614 102.942 43.7431 102.041L38.6826 117.708C40.9009 118.609 43.1886 119.302 45.4762 119.926L50.5367 104.26H50.606Z" fill="#5454E9"/>
<path d="M64.336 121.731V105.301C63.2269 105.371 62.0484 105.44 60.9393 105.44C59.8301 105.44 58.6516 105.44 57.5425 105.301V121.731C58.6516 121.731 59.8301 121.8 60.9393 121.8C62.0484 121.8 63.2269 121.8 64.336 121.731Z" fill="#5454E9"/>
<path d="M64.336 121.731V105.301C63.2269 105.371 62.0484 105.44 60.9393 105.44C59.8301 105.44 58.6516 105.44 57.5425 105.301V121.731C58.6516 121.731 59.8301 121.8 60.9393 121.8C62.0484 121.8 63.2269 121.8 64.336 121.731Z" fill="#5454E9"/>
<path d="M53.7826 34.9408C52.9507 35.1488 52.1189 35.426 51.3563 35.7033L46.7811 21.5616C47.6129 21.2843 48.3755 21.0071 49.2073 20.7991L53.7826 34.9408ZM60.8535 19.1354C59.8829 19.1354 58.8431 19.1354 57.8726 19.274V34.2476C58.8431 34.1089 59.8136 34.1089 60.8535 34.1089C61.8933 34.1089 62.8638 34.1089 63.8343 34.2476V19.274C62.8638 19.274 61.8933 19.1354 60.8535 19.1354ZM76.5202 22.1162C74.7179 21.423 72.9155 20.7991 71.0438 20.3138L66.3992 34.5249C68.3402 34.9408 70.1426 35.5647 71.8757 36.3272L76.5202 22.1162ZM87.6811 28.8405C86.2253 27.662 84.7696 26.5528 83.1752 25.5823L74.3713 37.6444C75.9657 38.6149 77.4908 39.6547 78.8772 40.9025L87.6811 28.8405ZM37.4226 26.2755C36.6601 26.7608 35.9668 27.3154 35.2043 27.8699L43.9389 39.932C44.6321 39.3774 45.3946 38.8228 46.1572 38.3376L37.4226 26.2755ZM96.2077 38.6149C95.2372 37.0898 94.1974 35.634 93.0189 34.2476L80.9569 43.0515C82.1353 44.3686 83.2445 45.8937 84.1457 47.4188L96.2077 38.6149ZM20.6467 49.4984L34.7884 54.0737C35.0657 53.1032 35.4123 52.0633 35.7589 51.1622L21.5479 46.5869C21.2012 47.5574 20.8546 48.5279 20.5773 49.4984H20.6467ZM87.6811 63.4322H102.585C102.585 62.6003 102.655 61.7684 102.655 60.9366C102.655 60.1047 102.655 59.2728 102.585 58.441H87.6811C87.7504 59.2728 87.8197 60.1047 87.8197 60.9366C87.8197 61.7684 87.8197 62.6003 87.6811 63.4322ZM27.9255 35.1488C27.3016 35.9113 26.747 36.6738 26.1924 37.5057L38.2545 46.2403C38.809 45.4084 39.3636 44.6459 39.9875 43.8833L27.9255 35.1488ZM34.0258 59.2728H19.1216C19.1216 59.8274 19.1216 60.382 19.1216 60.9366C19.1216 61.4911 19.1216 62.0457 19.1216 62.6003H34.0258C34.0258 62.0457 34.0258 61.4911 34.0258 60.9366C34.0258 60.382 34.0258 59.8274 34.0258 59.2728ZM34.7884 93.5873C35.7589 94.3498 36.7987 95.1124 37.8385 95.8056L46.5731 83.7435C45.464 83.0503 44.4935 82.2878 43.5229 81.5252L34.7884 93.5873ZM46.0879 100.034C47.3357 100.519 48.5835 100.935 49.9006 101.282L54.5452 87.071C53.228 86.7244 51.9802 86.3084 50.7324 85.8232L46.0879 100.034ZM25.9845 84.0208C26.6777 85.0607 27.3709 86.0312 28.1334 86.9323L40.1955 78.1978C39.4329 77.2966 38.7397 76.2567 38.0465 75.2862L25.9845 84.0208ZM20.5773 72.2361C20.8546 73.3452 21.2706 74.4544 21.6172 75.4942L35.8282 70.9189C35.4123 69.8791 35.0657 68.77 34.7884 67.6608L20.6467 72.2361H20.5773ZM60.8535 102.738C61.5467 102.738 62.2399 102.738 62.9331 102.738V87.8335C62.2399 87.8335 61.5467 87.9028 60.8535 87.9028C60.1602 87.9028 59.467 87.9029 58.7738 87.8335V102.738C59.467 102.738 60.1602 102.738 60.8535 102.738ZM101.407 50.5383C100.991 48.8052 100.436 47.1415 99.8125 45.5471L85.6014 50.1916C86.2946 51.7861 86.8492 53.4498 87.1958 55.1828L101.407 50.5383ZM71.737 101.351C73.1235 101.005 74.5099 100.519 75.8963 100.034L71.2518 85.8232C69.9346 86.3778 68.5482 86.7937 67.0924 87.1403L71.737 101.351ZM99.8125 76.1874C100.436 74.6623 100.922 73.1373 101.338 71.5428L87.1265 66.8983C86.7799 68.4927 86.2946 70.0871 85.6014 71.5428L99.8125 76.1874ZM93.2962 87.3483C94.2667 86.1698 95.2372 84.8527 96.0691 83.5356L84.007 74.7317C83.1752 76.0488 82.274 77.3659 81.2341 78.5444L93.2962 87.3483ZM83.5911 96.0829C84.8389 95.251 86.0867 94.3498 87.2652 93.4486L78.4613 81.3866C77.3521 82.3571 76.1043 83.2583 74.7872 84.0208L83.5218 96.0829H83.5911Z" fill="#5454E9"/>
<path d="M142.801 49.8413H151.258V98.852H142.801V49.8413Z" fill="#5454E9"/>
<path d="M161.239 74.664C161.239 59.8984 172.4 48.7375 186.888 48.7375C201.376 48.7375 203.109 52.4116 207.823 59.1358L201.099 64.2656C197.148 58.9278 192.226 56.4323 186.819 56.4323C177.46 56.4323 170.043 63.8497 170.043 74.3867C170.043 84.9236 177.668 92.3411 186.957 92.3411C196.246 92.3411 198.326 89.3602 202.139 84.1611L208.586 88.875C203.872 96.0152 195.969 100.036 186.888 100.036C172.122 100.036 161.308 89.2909 161.308 74.664H161.239Z" fill="#5454E9"/>
<path d="M263.209 76.2525H222.309C223.003 86.5815 229.865 92.4738 239.709 92.4738C249.553 92.4738 251.771 89.7703 255.931 84.1552L262.031 88.7998C257.317 95.8706 249.414 99.9606 239.57 99.9606C224.25 99.9606 213.713 89.6316 213.713 74.6581C213.713 59.6845 224.736 48.593 239.64 48.593C254.544 48.593 263.556 58.1594 263.556 72.5091C263.556 86.8587 263.487 75.0047 263.279 76.1831L263.209 76.2525ZM222.795 68.9043H254.821C253.574 60.447 247.958 55.9411 239.57 55.9411C231.183 55.9411 224.736 60.655 222.795 68.9043Z" fill="#5454E9"/>
<path d="M270.149 92.1993L275.557 85.8217C280.201 90.189 286.301 92.4073 291.986 92.4073C297.67 92.4073 302.523 89.4265 302.523 85.3365C302.523 81.2465 300.374 80.1373 294.135 78.6815L285.539 76.7405C275.695 74.5222 271.536 70.2936 271.536 63.6386C271.536 56.9837 278.884 48.6651 290.322 48.6651C301.76 48.6651 305.573 51.438 310.218 56.4985L304.533 62.3909C300.512 58.3702 295.452 56.2905 289.768 56.2905C284.083 56.2905 279.855 58.9941 279.855 62.9454C279.855 66.8968 281.657 67.6593 288.45 69.1844L297.046 71.1254C306.959 73.3437 310.841 77.8497 310.841 84.6432C310.841 91.4368 303.771 99.9634 291.709 99.9634C279.647 99.9634 275.141 96.9826 270.219 92.13L270.149 92.1993Z" fill="#5454E9"/>
<path d="M320.542 49.8413H329V98.852H320.542V49.8413Z" fill="#5454E9"/>
<path d="M142.802 31.1949V22.6683H145.367V30.9869C145.367 33.5518 146.614 34.7996 148.763 34.7996C150.912 34.7996 152.16 33.5518 152.16 30.9869V22.6683H154.725V31.1949C154.725 35.0076 152.438 37.1566 148.763 37.1566C145.089 37.1566 142.802 35.0076 142.802 31.1949Z" fill="#5454E9"/>
<path d="M167.763 30.6365V36.8755H165.337V31.1218C165.337 29.3194 164.505 28.4182 163.119 28.4182C161.732 28.4182 161.316 28.7649 160.554 29.666V36.8755H158.127V26.4772H160.554V27.3784C161.386 26.6852 162.564 26.2693 163.743 26.2693C166.169 26.2693 167.763 27.8637 167.763 30.7059V30.6365Z" fill="#5454E9"/>
<path d="M170.672 23.4997C170.672 22.6678 171.365 21.9746 172.266 21.9746C173.167 21.9746 173.791 22.6678 173.791 23.4997C173.791 24.3316 173.098 25.0941 172.266 25.0941C171.434 25.0941 170.672 24.4009 170.672 23.4997ZM171.018 26.4806H173.445V36.8789H171.018V26.4806Z" fill="#5454E9"/>
<path d="M186.753 26.483L182.455 36.8813H179.82L175.522 26.483H178.226L181.138 33.9004L184.049 26.483H186.753Z" fill="#5454E9"/>
<path d="M198.613 32.3003H190.364C190.572 34.1026 191.75 35.0732 193.553 35.0732C195.355 35.0732 195.771 34.6572 196.603 33.6174L198.336 34.9345C197.227 36.3903 195.563 37.2221 193.483 37.2221C190.086 37.2221 187.868 35.0038 187.868 31.815C187.868 28.6262 190.156 26.2693 193.414 26.2693C196.672 26.2693 198.613 28.2796 198.613 31.3991C198.613 34.5186 198.613 32.023 198.613 32.3003ZM190.502 30.4286H196.256C195.979 28.9728 195.008 28.2796 193.553 28.2796C192.097 28.2796 190.918 29.0421 190.572 30.4286H190.502Z" fill="#5454E9"/>
<path d="M207.824 26.3386L207.685 28.6262C207.339 28.6262 206.992 28.5569 206.715 28.5569C205.536 28.5569 204.496 29.1115 203.873 30.1513V36.9449H201.446V26.5465H203.873V27.6557C204.566 26.7545 205.675 26.2693 206.784 26.2693C207.893 26.2693 207.477 26.2693 207.893 26.4079L207.824 26.3386Z" fill="#5454E9"/>
<path d="M209.495 35.6277L210.742 33.8254C211.852 34.6572 213.03 35.0732 214.209 35.0732C215.387 35.0732 216.011 34.5879 216.011 33.964C216.011 33.3401 215.664 33.1321 214.555 32.8549L212.753 32.4389C210.673 31.9537 209.772 31.0525 209.772 29.5967C209.772 28.141 211.366 26.2693 213.931 26.2693C216.496 26.2693 217.189 26.8238 218.229 27.7943L216.912 29.5274C215.942 28.7648 214.902 28.3489 213.793 28.3489C212.683 28.3489 212.129 28.7649 212.129 29.3887C212.129 30.0126 212.475 30.1513 213.585 30.4286L215.387 30.8445C217.536 31.3298 218.368 32.3003 218.368 33.756C218.368 35.2118 216.773 37.1528 214.07 37.1528C211.366 37.1528 210.534 36.5289 209.425 35.6277H209.495Z" fill="#5454E9"/>
<path d="M220.65 23.4997C220.65 22.6678 221.343 21.9746 222.244 21.9746C223.145 21.9746 223.769 22.6678 223.769 23.4997C223.769 24.3316 223.076 25.0941 222.244 25.0941C221.412 25.0941 220.65 24.4009 220.65 23.4997ZM220.997 26.4806H223.423V36.8789H220.997V26.4806Z" fill="#5454E9"/>
<path d="M236.81 21.836V36.8789H234.384V36.1163C233.622 36.8096 232.512 37.1562 231.403 37.1562C228.561 37.1562 226.204 34.8685 226.204 31.6797C226.204 28.4909 228.561 26.2033 231.403 26.2033C234.245 26.2033 233.622 26.5499 234.384 27.2431V21.836H236.81ZM234.384 33.6901V29.6694C233.691 28.8375 232.72 28.4909 231.75 28.4909C230.017 28.4909 228.7 29.7387 228.7 31.6797C228.7 33.6208 230.017 34.8685 231.75 34.8685C233.483 34.8685 233.691 34.4526 234.384 33.6207V33.6901Z" fill="#5454E9"/>
<path d="M250.116 26.4799V36.8782H247.69V36.1157C246.927 36.8089 245.818 37.1555 244.709 37.1555C241.867 37.1555 239.51 34.8679 239.51 31.679C239.51 28.4902 241.867 26.2026 244.709 26.2026C247.551 26.2026 246.927 26.5492 247.69 27.2424V26.4799H250.116ZM247.69 33.6894V29.6687C246.997 28.8368 246.026 28.4902 245.056 28.4902C243.322 28.4902 242.005 29.738 242.005 31.679C242.005 33.6201 243.322 34.8679 245.056 34.8679C246.789 34.8679 246.997 34.4519 247.69 33.6201V33.6894Z" fill="#5454E9"/>
<path d="M263.495 21.836V36.8789H261.069V36.1163C260.306 36.8096 259.197 37.1562 258.088 37.1562C255.246 37.1562 252.889 34.8685 252.889 31.6797C252.889 28.4909 255.246 26.2033 258.088 26.2033C260.93 26.2033 260.306 26.5499 261.069 27.2431V21.836H263.495ZM261.069 33.6901V29.6694C260.375 28.8375 259.405 28.4909 258.434 28.4909C256.701 28.4909 255.384 29.7387 255.384 31.6797C255.384 33.6208 256.701 34.8685 258.434 34.8685C260.167 34.8685 260.375 34.4526 261.069 33.6207V33.6901Z" fill="#5454E9"/>
</svg>
