<svg width="470" height="93" viewBox="0 0 470 93" fill="none" xmlns="http://www.w3.org/2000/svg">
<path d="M5.54541 74.2307V12.2841H13.6499V74.2265H5.54541V74.2307Z" fill="#5454E9"/>
<path d="M27.3755 74.2307V12.2841H34.1565L69.5484 62.3383L66.4867 62.671V12.2841H74.675V74.2265H67.894L32.6696 23.8438L35.48 23.5111V74.2307H27.3755Z" fill="#5454E9"/>
<path d="M88.4041 74.2307V12.2841H95.1851L130.577 62.3383L127.515 62.671V12.2841H135.704V74.2265H128.923L93.694 23.8396L96.5044 23.5069V74.2265H88.3999L88.4041 74.2307Z" fill="#5454E9"/>
<path d="M149.433 74.2307V12.2841H157.538V66.7432H184.578V74.2265H149.433V74.2307Z" fill="#5454E9"/>
<path d="M187.724 74.2307L209.805 12.2883H219.396L241.477 74.2307H232.795L227.752 59.681H201.453L196.41 74.2307H187.728H187.724ZM204.012 52.1978H225.18L213.436 18.1924H215.752L204.008 52.1978H204.012Z" fill="#5454E9"/>
<path d="M249.247 74.2307V12.2841H275.131C278.825 12.2841 282.008 12.9494 284.681 14.2802C287.353 15.6109 289.422 17.4807 290.884 19.8937C292.345 22.3067 293.074 25.1745 293.074 28.4972C293.074 31.5461 292.287 34.3044 290.716 36.7721C289.145 39.2399 286.842 41.1644 283.809 42.5499L283.726 39.4715C286.373 40.4696 288.563 41.7877 290.301 43.4216C292.04 45.0556 293.346 46.9422 294.23 49.0773C295.11 51.2123 295.554 53.4695 295.554 55.8531C295.554 61.5634 293.736 66.0526 290.096 69.3247C286.456 72.5968 281.497 74.2307 275.211 74.2307H249.243H249.247ZM257.351 37.7281H274.964C277.942 37.7281 280.337 36.8564 282.159 35.1087C283.977 33.3611 284.89 31.1334 284.89 28.4171C284.89 25.7009 283.981 23.4269 282.159 21.9319C280.341 20.4369 277.942 19.6873 274.964 19.6873H257.351V37.7281ZM257.351 66.7474H275.546C279.127 66.7474 281.996 65.7788 284.144 63.8375C286.293 61.8961 287.37 59.2641 287.37 55.9373C287.37 52.6104 286.293 49.9658 284.144 47.995C281.996 46.0284 279.127 45.0429 275.546 45.0429H257.351V66.7432V66.7474Z" fill="#5454E9"/>
<path d="M346.987 41.4255C345.701 41.4255 344.512 41.1939 343.431 40.7265C342.346 40.259 341.4 39.5979 340.595 38.7472C339.787 37.8965 339.163 36.8943 338.723 35.7488C338.283 34.6034 338.062 33.3484 338.062 31.9882C338.062 30.628 338.283 29.3478 338.723 28.2024C339.163 27.0569 339.783 26.0547 340.583 25.204C341.383 24.3533 342.325 23.6922 343.418 23.2247C344.512 22.7573 345.701 22.5257 346.987 22.5257C348.273 22.5257 349.37 22.7489 350.375 23.191C351.381 23.6332 352.227 24.2059 352.918 24.9134C353.609 25.6167 354.103 26.3705 354.396 27.1748L352.197 28.1813C351.774 27.1664 351.113 26.341 350.216 25.7093C349.32 25.0777 348.243 24.7618 346.987 24.7618C345.73 24.7618 344.587 25.065 343.599 25.6714C342.614 26.2779 341.844 27.1201 341.287 28.2024C340.734 29.2846 340.457 30.548 340.457 31.9882C340.457 33.4285 340.734 34.6666 341.287 35.7488C341.839 36.8311 342.61 37.6733 343.599 38.2798C344.583 38.8862 345.714 39.1894 346.987 39.1894C348.26 39.1894 349.32 38.8735 350.216 38.2419C351.113 37.6102 351.774 36.789 352.197 35.7699L354.396 36.7764C354.103 37.5807 353.609 38.3345 352.918 39.0378C352.227 39.741 351.376 40.318 350.375 40.7601C349.374 41.2023 348.243 41.4255 346.987 41.4255Z" fill="#5454E9"/>
<path d="M363.2 41.4255C361.927 41.4255 360.796 41.1223 359.799 40.5159C358.806 39.9095 358.023 39.0757 357.454 38.0187C356.884 36.9617 356.599 35.7783 356.599 34.4644C356.599 33.1505 356.88 31.9545 357.441 30.9228C358.002 29.8911 358.769 29.0741 359.74 28.4761C360.712 27.8781 361.797 27.5791 363.003 27.5791C363.979 27.5791 364.85 27.756 365.608 28.1097C366.366 28.4635 367.011 28.9393 367.539 29.5373C368.067 30.1353 368.477 30.8175 368.762 31.5798C369.047 32.342 369.189 33.1337 369.189 33.9507C369.189 34.1317 369.177 34.3339 369.152 34.5529C369.127 34.7718 369.097 34.9824 369.064 35.1803H358.258V33.2137H367.744L366.668 34.098C366.815 33.2474 366.735 32.4852 366.425 31.8114C366.115 31.1418 365.659 30.607 365.055 30.2153C364.452 29.8237 363.765 29.6258 363.003 29.6258C362.241 29.6258 361.537 29.8237 360.901 30.2153C360.264 30.607 359.77 31.1713 359.422 31.8998C359.07 32.6283 358.928 33.4958 358.995 34.4939C358.928 35.4625 359.079 36.3089 359.447 37.0375C359.816 37.766 360.335 38.3303 361.014 38.7346C361.688 39.1346 362.429 39.3368 363.225 39.3368C364.105 39.3368 364.846 39.1304 365.449 38.7219C366.052 38.3134 366.542 37.7871 366.915 37.1469L368.821 38.1282C368.561 38.7346 368.155 39.2862 367.61 39.7874C367.066 40.2885 366.421 40.6844 365.68 40.9791C364.938 41.2739 364.109 41.4213 363.2 41.4213V41.4255Z" fill="#5454E9"/>
<path d="M372.146 41.1307V27.8781H374.371V30.4596L374.002 30.2364C374.329 29.3984 374.852 28.7498 375.581 28.2824C376.306 27.8149 377.16 27.5833 378.136 27.5833C379.112 27.5833 379.924 27.7981 380.666 28.2234C381.407 28.6488 381.993 29.2383 382.425 29.9921C382.856 30.7459 383.074 31.5966 383.074 32.5483V41.1265H380.775V33.2853C380.775 32.5483 380.645 31.9251 380.385 31.4155C380.125 30.906 379.753 30.5101 379.271 30.2237C378.789 29.9374 378.241 29.7942 377.621 29.7942C377.001 29.7942 376.452 29.9374 375.97 30.2237C375.489 30.5101 375.112 30.9102 374.835 31.4281C374.559 31.9461 374.421 32.5652 374.421 33.2853V41.1265H372.146V41.1307Z" fill="#5454E9"/>
<path d="M391.685 41.2781C390.395 41.2781 389.407 40.9075 388.716 40.1706C388.025 39.4336 387.677 38.3935 387.677 37.0501V30.0679H385.281V27.8781H385.771C386.358 27.8781 386.823 27.697 387.166 27.3391C387.509 26.9769 387.681 26.5011 387.681 25.9115V24.8292H389.955V27.8781H392.912V30.0679H389.955V36.9743C389.955 37.4165 390.022 37.8039 390.165 38.1282C390.303 38.4566 390.533 38.7135 390.86 38.903C391.187 39.0925 391.618 39.1852 392.154 39.1852C392.267 39.1852 392.41 39.1767 392.582 39.1599C392.753 39.1431 392.912 39.1262 393.059 39.1094V41.1265C392.845 41.1771 392.611 41.2108 392.351 41.236C392.092 41.2613 391.87 41.2739 391.689 41.2739L391.685 41.2781Z" fill="#5454E9"/>
<path d="M396.012 41.1307V27.8781H398.236V30.3122L397.993 29.9669C398.303 29.2131 398.777 28.653 399.413 28.2824C400.05 27.9118 400.825 27.7307 401.738 27.7307H402.546V29.8953H401.398C400.469 29.8953 399.719 30.1858 399.149 30.767C398.58 31.3481 398.295 32.1735 398.295 33.239V41.1307H396.021H396.012Z" fill="#5454E9"/>
<path d="M410.83 41.4255C409.557 41.4255 408.41 41.1265 407.383 40.5285C406.357 39.9305 405.541 39.1052 404.937 38.0566C404.334 37.008 404.033 35.8204 404.033 34.4897C404.033 33.1589 404.33 31.984 404.925 30.9481C405.52 29.9163 406.332 29.0951 407.358 28.4887C408.384 27.8823 409.54 27.5791 410.83 27.5791C412.12 27.5791 413.251 27.8781 414.277 28.4761C415.304 29.0741 416.116 29.8911 416.711 30.9228C417.306 31.9545 417.603 33.1421 417.603 34.4855C417.603 35.8288 417.293 37.0206 416.673 38.0608C416.053 39.1009 415.232 39.9221 414.215 40.5201C413.197 41.1181 412.066 41.4171 410.83 41.4171V41.4255ZM410.83 39.2146C411.647 39.2146 412.384 39.0083 413.042 38.5998C413.699 38.1913 414.223 37.6228 414.608 36.9027C414.99 36.1826 415.182 35.3782 415.182 34.4939C415.182 33.6095 414.99 32.7926 414.608 32.0977C414.227 31.4029 413.704 30.8428 413.042 30.4259C412.38 30.009 411.643 29.7984 410.83 29.7984C410.018 29.7984 409.251 30.009 408.594 30.4259C407.936 30.8428 407.409 31.4029 407.015 32.0977C406.621 32.7926 406.428 33.5927 406.428 34.4939C406.428 35.3951 406.625 36.1826 407.015 36.9027C407.404 37.6228 407.932 38.1913 408.594 38.5998C409.256 39.0083 410.001 39.2146 410.83 39.2146Z" fill="#5454E9"/>
<path d="M430.78 41.4255C429.54 41.4255 428.426 41.1223 427.442 40.5159C426.453 39.9095 425.678 39.0799 425.104 38.0313C424.535 36.9827 424.25 35.812 424.25 34.5149C424.25 33.2179 424.535 32.0051 425.104 30.9607C425.674 29.9205 426.453 29.0951 427.442 28.4887C428.426 27.8823 429.54 27.5791 430.78 27.5791C431.873 27.5791 432.84 27.8107 433.691 28.2782C434.537 28.7456 435.207 29.3731 435.697 30.1606L435.328 30.7249V22.513H437.628V41.1223H435.404V38.2966L435.697 38.6882C435.24 39.5557 434.574 40.2295 433.703 40.7054C432.832 41.1813 431.856 41.4171 430.78 41.4171V41.4255ZM430.977 39.2146C431.806 39.2146 432.551 39.0083 433.201 38.5998C433.85 38.1913 434.369 37.627 434.754 36.9153C435.136 36.2036 435.328 35.4035 435.328 34.5192C435.328 33.6348 435.136 32.8094 434.754 32.0977C434.369 31.386 433.854 30.8217 433.201 30.4132C432.547 30.0048 431.806 29.7984 430.977 29.7984C430.147 29.7984 429.423 30.009 428.765 30.4259C428.108 30.8428 427.588 31.4029 427.211 32.0977C426.834 32.7926 426.65 33.6011 426.65 34.5192C426.65 35.4372 426.838 36.2036 427.211 36.9153C427.584 37.627 428.099 38.1913 428.753 38.5998C429.406 39.0083 430.147 39.2146 430.977 39.2146Z" fill="#5454E9"/>
<path d="M447.215 41.4255C445.942 41.4255 444.811 41.1223 443.814 40.5159C442.822 39.9095 442.038 39.0757 441.469 38.0187C440.899 36.9617 440.614 35.7783 440.614 34.4644C440.614 33.1505 440.895 31.9545 441.456 30.9228C442.017 29.8911 442.784 29.0741 443.756 28.4761C444.727 27.8781 445.812 27.5791 447.018 27.5791C447.994 27.5791 448.865 27.756 449.623 28.1097C450.382 28.4635 451.027 28.9393 451.554 29.5373C452.082 30.1353 452.493 30.8175 452.777 31.5798C453.062 32.342 453.205 33.1337 453.205 33.9507C453.205 34.1317 453.192 34.3339 453.167 34.5529C453.142 34.7718 453.112 34.9824 453.079 35.1803H442.273V33.2137H451.76L450.683 34.098C450.83 33.2474 450.75 32.4852 450.44 31.8114C450.13 31.1418 449.674 30.607 449.071 30.2153C448.468 29.8237 447.781 29.6258 447.018 29.6258C446.256 29.6258 445.552 29.8237 444.916 30.2153C444.279 30.607 443.785 31.1713 443.437 31.8998C443.085 32.6283 442.943 33.4958 443.01 34.4939C442.943 35.4625 443.094 36.3089 443.462 37.0375C443.831 37.766 444.35 38.3303 445.029 38.7346C445.703 39.1346 446.445 39.3368 447.24 39.3368C448.12 39.3368 448.861 39.1304 449.464 38.7219C450.067 38.3134 450.557 37.7871 450.93 37.1469L452.836 38.1282C452.576 38.7346 452.17 39.2862 451.626 39.7874C451.081 40.2885 450.436 40.6844 449.695 40.9791C448.953 41.2739 448.124 41.4213 447.215 41.4213V41.4255Z" fill="#5454E9"/>
<path d="M338.602 70.6344V52.3199H340.998V70.6344H338.602Z" fill="#5454E9"/>
<path d="M344.788 70.6344V57.3817H347.012V59.9632L346.644 59.74C346.97 58.902 347.494 58.2534 348.223 57.786C348.947 57.3186 349.802 57.0869 350.777 57.0869C351.753 57.0869 352.566 57.3017 353.307 57.727C354.049 58.1524 354.635 58.7419 355.066 59.4957C355.498 60.2496 355.716 61.1002 355.716 62.0519V70.6301H353.416V62.7889C353.416 62.0519 353.286 61.4287 353.027 60.9191C352.767 60.4096 352.394 60.0137 351.913 59.7274C351.431 59.441 350.882 59.2978 350.262 59.2978C349.642 59.2978 349.094 59.441 348.612 59.7274C348.13 60.0137 347.753 60.4138 347.477 60.9318C347.201 61.4497 347.062 62.0688 347.062 62.7889V70.6301H344.788V70.6344Z" fill="#5454E9"/>
<path d="M358.97 70.6344V57.3817H361.194V59.9632L360.825 59.74C361.152 58.902 361.675 58.2534 362.404 57.786C363.129 57.3186 363.983 57.0869 364.959 57.0869C365.935 57.0869 366.748 57.3017 367.489 57.727C368.23 58.1524 368.817 58.7419 369.248 59.4957C369.679 60.2496 369.897 61.1002 369.897 62.0519V70.6301H367.598V62.7889C367.598 62.0519 367.468 61.4287 367.208 60.9191C366.949 60.4096 366.576 60.0137 366.094 59.7274C365.613 59.441 365.064 59.2978 364.444 59.2978C363.824 59.2978 363.275 59.441 362.794 59.7274C362.312 60.0137 361.935 60.4138 361.659 60.9318C361.382 61.4497 361.244 62.0688 361.244 62.7889V70.6301H358.97V70.6344Z" fill="#5454E9"/>
<path d="M379.409 70.9291C378.136 70.9291 376.988 70.6301 375.962 70.0322C374.936 69.4342 374.119 68.6088 373.516 67.5602C372.913 66.5116 372.611 65.324 372.611 63.9933C372.611 62.6626 372.909 61.4876 373.503 60.4517C374.098 59.4157 374.911 58.5988 375.937 57.9924C376.963 57.3859 378.119 57.0827 379.409 57.0827C380.699 57.0827 381.83 57.3817 382.856 57.9797C383.882 58.5777 384.695 59.3947 385.29 60.4264C385.884 61.4582 386.182 62.6457 386.182 63.9891C386.182 65.3325 385.872 66.5242 385.252 67.5644C384.632 68.6046 383.815 69.4257 382.793 70.0237C381.776 70.6217 380.645 70.9207 379.405 70.9207L379.409 70.9291ZM379.409 68.714C380.226 68.714 380.963 68.5077 381.621 68.0992C382.278 67.6907 382.802 67.1222 383.187 66.4021C383.568 65.682 383.761 64.8777 383.761 63.9933C383.761 63.109 383.568 62.292 383.187 61.5971C382.802 60.9023 382.282 60.3422 381.621 59.9253C380.959 59.5084 380.222 59.2978 379.409 59.2978C378.597 59.2978 377.83 59.5084 377.172 59.9253C376.515 60.3422 375.987 60.9023 375.593 61.5971C375.2 62.292 375.007 63.0921 375.007 63.9933C375.007 64.8945 375.204 65.682 375.593 66.4021C375.983 67.1222 376.511 67.6907 377.172 68.0992C377.834 68.5077 378.58 68.714 379.409 68.714Z" fill="#5454E9"/>
<path d="M392.565 70.6344L387.405 57.3817H389.947L394.081 68.5919H393.201L397.356 57.3817H399.899L394.714 70.6344H392.561H392.565Z" fill="#5454E9"/>
<path d="M405.302 70.9291C404.439 70.9291 403.677 70.7691 403.015 70.4491C402.353 70.129 401.838 69.6868 401.461 69.1225C401.084 68.5582 400.9 67.9055 400.9 67.1685C400.9 66.4316 401.051 65.8294 401.352 65.2651C401.654 64.7008 402.127 64.2207 402.772 63.8249C403.417 63.4332 404.225 63.1511 405.206 62.9868L410.098 62.1741V64.0902L405.721 64.8271C404.875 64.9745 404.259 65.244 403.874 65.6399C403.488 66.0315 403.3 66.5158 403.3 67.0885C403.3 67.6276 403.518 68.0782 403.949 68.4403C404.38 68.8025 404.925 68.9794 405.574 68.9794C406.403 68.9794 407.128 68.8025 407.74 68.4487C408.351 68.095 408.833 67.6191 409.185 67.0085C409.536 66.4021 409.708 65.7283 409.708 64.9914V61.6224C409.708 60.9023 409.444 60.3169 408.912 59.8663C408.38 59.4157 407.685 59.1883 406.822 59.1883C406.073 59.1883 405.407 59.382 404.829 59.7653C404.251 60.1527 403.823 60.6623 403.547 61.3024L401.566 60.2706C401.809 59.6642 402.202 59.121 402.739 58.6367C403.275 58.1524 403.903 57.7734 404.619 57.4954C405.335 57.2175 406.085 57.0785 406.868 57.0785C407.878 57.0785 408.766 57.2722 409.532 57.6555C410.299 58.0429 410.898 58.5735 411.329 59.2515C411.76 59.9337 411.978 60.7212 411.978 61.6224V70.6217H409.754V68.1119L410.169 68.2592C409.892 68.7856 409.515 69.2405 409.042 69.6363C408.569 70.0279 408.016 70.3396 407.379 70.5712C406.743 70.7986 406.052 70.9165 405.302 70.9165V70.9291Z" fill="#5454E9"/>
<path d="M421.611 70.9291C420.321 70.9291 419.178 70.6259 418.177 70.0195C417.176 69.4131 416.388 68.5835 415.819 67.5349C415.249 66.4863 414.964 65.3072 414.964 63.9933C414.964 62.6794 415.249 61.4876 415.819 60.4517C416.388 59.4199 417.176 58.5988 418.177 57.9924C419.178 57.3859 420.325 57.0827 421.611 57.0827C422.474 57.0827 423.283 57.2385 424.032 57.5502C424.782 57.8618 425.444 58.2787 426.013 58.8051C426.583 59.3315 426.998 59.9463 427.261 60.6496L425.23 61.635C424.92 60.9486 424.447 60.3843 423.814 59.9506C423.178 59.5168 422.445 59.2978 421.616 59.2978C420.786 59.2978 420.095 59.5042 419.45 59.9127C418.805 60.3211 418.298 60.8812 417.921 61.5845C417.544 62.2878 417.36 63.1005 417.36 64.0186C417.36 64.9366 417.549 65.703 417.921 66.4147C418.294 67.1264 418.805 67.6907 419.45 68.0992C420.095 68.5077 420.816 68.714 421.616 68.714C422.416 68.714 423.182 68.4951 423.814 68.0613C424.451 67.6276 424.924 67.0506 425.23 66.3263L427.261 67.358C427.002 68.0445 426.583 68.6551 426.013 69.1899C425.444 69.7205 424.782 70.1459 424.032 70.4575C423.283 70.7691 422.474 70.9249 421.611 70.9249V70.9291Z" fill="#5454E9"/>
<path d="M430.244 55.2677V52.3157H432.518V55.2677H430.244ZM430.244 70.6344V57.3817H432.518V70.6344H430.244Z" fill="#5454E9"/>
<path d="M442.298 70.9291C441.024 70.9291 439.877 70.6301 438.851 70.0322C437.825 69.4342 437.008 68.6088 436.405 67.5602C435.802 66.5116 435.5 65.324 435.5 63.9933C435.5 62.6626 435.797 61.4876 436.392 60.4517C436.987 59.4199 437.799 58.5988 438.826 57.9924C439.852 57.3859 441.008 57.0827 442.298 57.0827C443.588 57.0827 444.719 57.3817 445.745 57.9797C446.771 58.5777 447.584 59.3947 448.178 60.4264C448.773 61.4582 449.07 62.6457 449.07 63.9891C449.07 65.3325 448.76 66.5242 448.141 67.5644C447.521 68.6046 446.7 69.4257 445.682 70.0237C444.664 70.6217 443.533 70.9207 442.298 70.9207V70.9291ZM442.298 68.7141C443.114 68.7141 443.852 68.5077 444.509 68.0992C445.167 67.6907 445.69 67.1222 446.076 66.4021C446.457 65.682 446.649 64.8777 446.649 63.9933C446.649 63.109 446.457 62.292 446.076 61.5971C445.695 60.9023 445.171 60.3422 444.509 59.9253C443.847 59.5084 443.11 59.2978 442.298 59.2978C441.485 59.2978 440.719 59.5084 440.061 59.9253C439.404 60.3422 438.876 60.9023 438.482 61.5971C438.088 62.292 437.896 63.0921 437.896 63.9933C437.896 64.8945 438.093 65.682 438.482 66.4021C438.872 67.1222 439.399 67.6907 440.061 68.0992C440.723 68.5077 441.468 68.7141 442.298 68.7141ZM441.15 54.8971L443.081 51.0144H446.164L443.424 54.8971H441.15Z" fill="#5454E9"/>
<path d="M452.032 70.6344V57.3817H454.256V59.9632L453.887 59.74C454.214 58.902 454.737 58.2534 455.466 57.786C456.191 57.3186 457.045 57.0869 458.021 57.0869C458.997 57.0869 459.81 57.3017 460.551 57.727C461.292 58.1524 461.879 58.7419 462.31 59.4957C462.741 60.2496 462.959 61.1002 462.959 62.0519V70.6301H460.66V62.7889C460.66 62.0519 460.53 61.4287 460.27 60.9191C460.011 60.4096 459.638 60.0137 459.156 59.7274C458.675 59.441 458.126 59.2978 457.506 59.2978C456.886 59.2978 456.337 59.441 455.856 59.7274C455.374 60.0137 454.997 60.4138 454.721 60.9318C454.444 61.4497 454.306 62.0688 454.306 62.7889V70.6301H452.032V70.6344Z" fill="#5454E9"/>
</svg>
